<?xml version="1.0" encoding="utf-8"?>
<svg version="1.0" width="67.000000pt" height="67.000000pt" viewBox="0 0 67.000000 67.000000" preserveAspectRatio="xMidYMid meet" xmlns="http://www.w3.org/2000/svg">
  <g transform="translate(0.000000,67.000000) scale(0.100000,-0.100000)" fill="#000000" stroke="none">
    <path d="M244 640 c-18 -6 -53 -25 -80 -42 -207 -140 -182 -441 46 -546 111 -52 256 -25 345 63 123 124 121 335 -5 449 -64 58 -115 79 -200 82 -41 2 -89 -1 -106 -6z m206 -104 c0 -7 -9 -16 -19 -19 -18 -4 -20 -17 -23 -171 l-3 -166 -28 -27 c-36 -37 -105 -39 -138 -6 -19 18 -20 24 -9 37 17 22 36 20 54 -5 9 -13 21 -19 30 -16 14 5 16 32 16 182 0 168 -1 175 -20 175 -11 0 -20 7 -20 15 0 12 16 15 80 15 61 0 80 -3 80 -14z" style="fill: rgb(255, 0, 0);"/>
  </g>
</svg>